<?xml version="1.0" encoding="UTF-8" standalone="no"?>
<svg width="17px" height="17px" viewBox="0 0 17 17" version="1.1" xmlns="http://www.w3.org/2000/svg" xmlns:xlink="http://www.w3.org/1999/xlink">
    <!-- Generator: Sketch 40.3 (33839) - http://www.bohemiancoding.com/sketch -->
    <title>close</title>
    <desc>Created with Sketch.</desc>
    <defs></defs>
    <g id="Page-2-Copy" stroke="none" stroke-width="1" fill="none" fill-rule="evenodd">
        <g id="ATM_RefApp_320_menu" transform="translate(-20.000000, -24.000000)" fill="#222222">
            <g id="close" transform="translate(20.000000, 24.000000)">
                <path d="M10.05125,8.81875 L16.1995833,2.78375 C16.4365977,2.56025029 16.5709481,2.24889781 16.5709481,1.923125 C16.5709481,1.59735219 16.4365977,1.28599971 16.1995833,1.0625 C15.7017307,0.588478816 14.9195193,0.588478816 14.4216667,1.0625 L8.2875,7.08333333 L2.18166667,1.0625 C1.68288317,0.583965501 0.895450168,0.583965501 0.396666667,1.0625 C0.161924383,1.28579609 0.029041359,1.59560018 0.029041359,1.91958333 C0.029041359,2.24356649 0.161924383,2.55337058 0.396666667,2.77666667 L6.51666667,8.81166667 L0.368333333,14.875 C0.133591049,15.0982961 0.00070802563,15.4081002 0.00070802563,15.7320833 C0.00070802563,16.0560665 0.133591049,16.3658706 0.368333333,16.5891667 C0.866985503,17.0458804 1.63377856,17.0396966 2.125,16.575 L8.25916667,10.5541667 L14.365,16.575 C14.8652301,17.0499235 15.6497699,17.0499235 16.15,16.575 C16.3851331,16.3504628 16.5181578,16.0394973 16.5181578,15.714375 C16.5181578,15.3892527 16.3851331,15.0782872 16.15,14.85375 L10.05125,8.81875 Z" id="Shape"></path>
            </g>
        </g>
    </g>
</svg>