<?xml version="1.0" encoding="UTF-8" standalone="no"?>
<svg width="56px" height="30px" viewBox="0 0 56 30" version="1.1" xmlns="http://www.w3.org/2000/svg" xmlns:xlink="http://www.w3.org/1999/xlink">
    <!-- Generator: Sketch 40.3 (33839) - http://www.bohemiancoding.com/sketch -->
    <title>cogs</title>
    <desc>Created with Sketch.</desc>
    <defs></defs>
    <g id="Page-2-Copy" stroke="none" stroke-width="1" fill="none" fill-rule="evenodd">
        <g id="ATM_RefApp_320" transform="translate(-132.000000, -17.000000)">
            <g id="Header">
                <g id="cogs" transform="translate(132.000000, 17.000000)">
                    <path d="M54.8165563,16.9529801 C53.9845575,16.5868251 53.1273967,16.2807436 52.2516556,16.0370861 C52.317844,15.3140945 52.317844,14.5865678 52.2516556,13.8635762 C53.1274449,13.6192595 53.9846059,13.3125141 54.8165563,12.9456954 C54.9789501,12.8744782 55.1214912,12.7646738 55.2317881,12.6258278 C55.1490319,12.0850409 55.0369461,11.5491513 54.8960265,11.0205298 C54.7635762,10.5317881 54.6099338,10.0549669 54.4350993,9.59006623 C54.2625162,9.51830189 54.0741553,9.49295879 53.8887417,9.51655629 C52.9841735,9.61518147 52.0878373,9.77851383 51.2066225,10.005298 C50.9022401,9.34793798 50.5377774,8.72010442 50.1178808,8.12980132 C50.7563571,7.47897523 51.3472804,6.78314653 51.8860927,6.04768212 C51.9916859,5.90294446 52.0599286,5.73438504 52.0847682,5.55695364 C51.7429223,5.13018376 51.3781465,4.72229811 50.992053,4.33509934 C50.6344371,3.97748344 50.2629139,3.64172185 49.8774834,3.32781457 C49.6919893,3.35157418 49.5159512,3.42349636 49.3668874,3.53642384 C48.6314272,4.07524156 47.9355989,4.66616447 47.2847682,5.30463576 C46.6944528,4.88475825 46.0666211,4.52029659 45.4092715,4.21589404 C45.6360557,3.33467922 45.7993881,2.43834307 45.8980132,1.53377483 C45.9202417,1.35490465 45.8977136,1.17331397 45.8324503,1.00529801 C45.3229129,0.80634954 44.8029411,0.635236349 44.2748344,0.492715232 C43.7860927,0.360264901 43.2966887,0.254966887 42.8066225,0.176821192 C42.6580281,0.289924293 42.5415938,0.43991919 42.4688742,0.61192053 C42.1073822,1.44494445 41.8059505,2.30276333 41.5668874,3.17880795 C40.8438958,3.11261958 40.1163691,3.11261958 39.3933775,3.17880795 C39.1495333,2.3044188 38.8434542,1.44859241 38.4774834,0.617880795 C38.4062578,0.453831646 38.2957163,0.309854675 38.1556291,0.198675497 C37.617032,0.278370375 37.0831396,0.387138515 36.5562914,0.524503311 C36.0675497,0.656953642 35.5907285,0.810596026 35.1258278,0.985430464 C35.0540635,1.15801356 35.0287204,1.34637448 35.0523179,1.53178808 C35.150392,2.43025872 35.312392,3.32059483 35.5370861,4.19602649 C34.8749283,4.49964758 34.2424091,4.8641276 33.6476821,5.28476821 C33.0020448,4.65304095 32.3122189,4.0681164 31.5834437,3.53443709 C31.438706,3.42884391 31.2701466,3.36060123 31.0927152,3.33576159 C30.6659454,3.67760746 30.2580597,4.04238325 29.8708609,4.42847682 C29.513245,4.78609272 29.1774834,5.15761589 28.8635762,5.54304636 C28.8873358,5.72854054 28.959258,5.90457865 29.0721854,6.05364238 C29.6035746,6.77945182 30.1858336,7.46661047 30.8145695,8.10993377 C30.3890329,8.70475586 30.0198855,9.3379601 29.7119205,10.0013245 C28.8435275,9.77957086 27.9605259,9.61956832 27.0695364,9.52251656 C26.8906662,9.50028807 26.7090756,9.52281624 26.5410596,9.58807947 C26.341643,10.0956266 26.1698681,10.6136041 26.0264901,11.1397351 C25.8940397,11.6284768 25.7887417,12.1178808 25.710596,12.607947 C25.8236991,12.7565414 25.973694,12.8729758 26.1456954,12.9456954 C26.9637061,13.3066857 27.8062013,13.6094263 28.6668874,13.8516556 C28.5992359,14.5825438 28.5992359,15.3181184 28.6668874,16.0490066 C27.8069238,16.2906659 26.9650956,16.5927415 26.1476821,16.9529801 C25.9821922,17.0236452 25.8367976,17.134227 25.7245033,17.2748344 C25.8055075,17.8135057 25.9156023,18.3473989 26.0543046,18.8741722 C26.186755,19.3629139 26.3403974,19.8397351 26.5152318,20.3046358 C26.6878149,20.3764001 26.8761758,20.4017432 27.0615894,20.3781457 C27.9471537,20.2817653 28.8248246,20.1230941 29.6880795,19.9033113 C29.9961805,20.5737016 30.3666882,21.213609 30.794702,21.8145695 C30.1726931,22.4526823 29.596431,23.1338401 29.0701987,23.8529801 C28.9646055,23.9977178 28.8963628,24.1662772 28.8715232,24.3437086 C29.2133691,24.7704785 29.5781448,25.1783641 29.9642384,25.5655629 C30.3218543,25.9231788 30.6933775,26.2589404 31.0788079,26.5728477 C31.2643021,26.5490881 31.4403402,26.4771659 31.589404,26.3642384 C32.3045655,25.836273 32.9817309,25.2586906 33.615894,24.6357616 C34.2151248,25.062068 34.8530174,25.4312342 35.5211921,25.7384106 C35.301435,26.601671 35.1427641,27.4793401 35.0463576,28.3649007 C35.0241291,28.5437708 35.0466573,28.7253615 35.1119205,28.8933775 C35.6214579,29.092326 36.1414298,29.2634391 36.6695364,29.4059603 C37.1582781,29.5384106 37.6476821,29.6437086 38.1377483,29.7218543 C38.2863427,29.6087512 38.4027771,29.4587563 38.4754967,29.286755 C38.8357353,28.4693415 39.1378109,27.6275133 39.3794702,26.7675497 C40.1103584,26.8352012 40.845933,26.8352012 41.5768212,26.7675497 C41.8190443,27.6282378 42.121785,28.4707334 42.4827815,29.2887417 C42.5534465,29.4542316 42.6640283,29.5996262 42.8046358,29.7119205 C43.3454227,29.6291644 43.8813123,29.5170786 44.4099338,29.3761589 C44.8986755,29.2437086 45.3754967,29.0900662 45.8403974,28.9152318 C45.9121617,28.7426487 45.9375048,28.5542878 45.9139073,28.3688742 C45.8168621,27.4778838 45.6568595,26.5948817 45.4350993,25.7264901 C46.0984637,25.4185251 46.731668,25.0493777 47.3264901,24.6238411 C47.9698044,25.2525869 48.6569637,25.8348466 49.3827815,26.3662252 C49.5275191,26.4718183 49.6960785,26.540061 49.8735099,26.5649007 C50.3002798,26.2230548 50.7081655,25.858279 51.0953642,25.4721854 C51.4529801,25.1145695 51.7887417,24.7430464 52.102649,24.3576159 C52.0788894,24.1721217 52.0069672,23.9960836 51.8940397,23.8470199 C51.3603657,23.1182405 50.7754408,22.4284143 50.1437086,21.7827815 C50.5643492,21.1880545 50.9288292,20.5555353 51.2324503,19.8933775 C52.1078834,20.118065 52.9982191,20.2800649 53.8966887,20.3781457 C54.0755589,20.4003742 54.2571496,20.377846 54.4251656,20.3125828 C54.624114,19.8030454 54.7952272,19.2830735 54.9377483,18.7549669 C55.0701987,18.2662252 55.1754967,17.7768212 55.2536424,17.286755 C55.1394875,17.139344 54.9888236,17.0242916 54.8165563,16.9529801 L54.8165563,16.9529801 Z M40.4801325,20.0821192 C37.6459242,20.0821192 35.3483444,17.7845394 35.3483444,14.9503311 C35.3483444,12.1161228 37.6459242,9.81854305 40.4801325,9.81854305 C43.3143407,9.81854305 45.6119205,12.1161228 45.6119205,14.9503311 C45.6119205,16.3113659 45.0712516,17.6166563 44.1088546,18.5790533 C43.1464576,19.5414502 41.8411673,20.0821192 40.4801325,20.0821192 L40.4801325,20.0821192 Z" id="Shape" fill="#F79E1B"></path>
                    <path d="M29.8251656,13.386755 C29.6770851,13.2727243 29.5017389,13.199435 29.3165563,13.1741722 C28.4157636,13.0349759 27.5061419,12.9606127 26.594702,12.9516556 C26.474193,12.2373445 26.2879718,11.5356894 26.0384106,10.8556291 C26.8222185,10.3926875 27.5718227,9.8741393 28.281457,9.30397351 C28.4237222,9.19350597 28.5363583,9.04946835 28.6092715,8.88476821 C28.3896246,8.38365885 28.1429031,7.89485841 27.8701987,7.4205298 C27.6145695,6.97682119 27.3417219,6.55629139 27.0516556,6.1589404 C26.8665886,6.13408802 26.6782398,6.15805969 26.505298,6.22847682 C25.6566172,6.55776875 24.8326487,6.94751048 24.0397351,7.39470199 C23.576335,6.83651497 23.0629464,6.32179635 22.5059603,5.85695364 C22.9522274,5.06591431 23.341301,4.24394648 23.6701987,3.39735099 C23.7378284,3.2306242 23.7630845,3.04973568 23.7437086,2.87086093 C23.3027036,2.54686711 22.8444115,2.24708704 22.3708609,1.97284768 C21.9324503,1.71721854 21.486755,1.48874172 21.0337748,1.28741722 C20.860785,1.35843072 20.7094066,1.47350575 20.594702,1.62119205 C20.028594,2.32535273 19.513382,3.06895767 19.0529801,3.84635762 C18.3700435,3.592804 17.6650271,3.4032477 16.9470199,3.28013245 C16.9375985,2.37736155 16.8639022,1.47640747 16.7264901,0.58410596 C16.7019666,0.405981731 16.6337094,0.236703926 16.5278146,0.0913907285 C15.9835184,0.0312273781 15.4363524,0.00071872419 14.8887417,0 C14.3827815,0 13.8827815,0.0251655629 13.3887417,0.0754966887 C13.274711,0.223577144 13.2014218,0.398923327 13.1761589,0.58410596 C13.0384975,1.47307419 12.9641383,2.37069603 12.9536424,3.27019868 C12.231859,3.39003437 11.5228274,3.57693671 10.8357616,3.82847682 C10.3785543,3.05753682 9.86734268,2.31993148 9.30596026,1.62119205 C9.19525441,1.47965302 9.05123714,1.36771543 8.88675497,1.29536424 C8.3856456,1.51501111 7.89684517,1.76173264 7.42251656,2.03443709 C6.97748344,2.28741722 6.55629139,2.5589404 6.1589404,2.84900662 C6.13408802,3.03407362 6.15805969,3.22242245 6.22847682,3.39536424 C6.551697,4.22921387 6.93344264,5.03917854 7.37086093,5.8192053 C6.8056553,6.28743026 6.28490076,6.80685465 5.81523179,7.37086093 C5.03649202,6.93360574 4.22786016,6.55186245 3.39536424,6.22847682 C3.22829757,6.16219565 3.04742023,6.13830619 2.86887417,6.1589404 C2.54488035,6.59994539 2.24510029,7.05823748 1.97086093,7.53178808 C1.71655629,7.96887417 1.48874172,8.41390728 1.28741722,8.86688742 C1.35843072,9.03987721 1.47350575,9.19125568 1.62119205,9.30596026 C2.31311288,9.86382195 3.04338921,10.3723598 3.80662252,10.8278146 C3.55119166,11.5171067 3.36095507,12.2288311 3.2384106,12.9536424 C2.34956821,12.9648711 1.46261431,13.0385626 0.58410596,13.1741722 C0.405981731,13.1986957 0.236703926,13.2669528 0.0913907285,13.3728477 C0.0312273781,13.9171438 0.00071872419,14.4643099 0,15.0119205 C0,15.5178808 0.0251655629,16.0178808 0.0754966887,16.5119205 C0.223577144,16.6259512 0.398923327,16.6992404 0.58410596,16.7245033 C1.46453504,16.8610567 2.35349068,16.935413 3.24437086,16.9470199 C3.36693816,17.6718262 3.55717418,18.3835484 3.81258278,19.0728477 C3.04934592,19.5282969 2.31906921,20.0368351 1.62715232,20.594702 C1.48561329,20.7054078 1.3736757,20.8494251 1.3013245,21.0139073 C1.52097138,21.5150167 1.7676929,22.0038171 2.04039735,22.4781457 C2.29337748,22.9165563 2.56490066,23.3370861 2.85496689,23.7397351 C3.04003388,23.7645875 3.22838272,23.7406158 3.4013245,23.6701987 C4.23382303,23.3468191 5.04245532,22.9650756 5.82119205,22.5278146 C6.29086102,23.0918208 6.81161557,23.6112452 7.37682119,24.0794702 C6.93939112,24.8594909 6.55764508,25.6694564 6.23443709,26.5033113 C6.16680736,26.6700381 6.14155123,26.8509266 6.16092715,27.0298013 C6.60193215,27.3537951 7.06022424,27.6535752 7.53377483,27.9278146 C7.97218543,28.1807947 8.41788079,28.4092715 8.87086093,28.613245 C9.04385072,28.5422315 9.19522919,28.4271565 9.30993377,28.2794702 C9.87132685,27.5807387 10.382539,26.8431326 10.8397351,26.0721854 C11.5251375,26.3206655 12.2321519,26.5049017 12.9516556,26.6225166 C12.9621449,27.5220195 13.0365041,28.4196418 13.1741722,29.3086093 C13.1986957,29.4867335 13.2669528,29.6560113 13.3728477,29.8013245 C13.916485,29.861416 14.4629859,29.8919245 15.0099338,29.8927152 C15.515894,29.8927152 16.015894,29.8675497 16.5099338,29.8172185 C16.6239645,29.6691381 16.6972537,29.4937919 16.7225166,29.3086093 C16.8614621,28.4197305 16.9371489,27.5221114 16.9490066,26.6225166 C17.6670164,26.4994125 18.3720338,26.3098559 19.0549669,26.0562914 C19.5152888,26.8343738 20.0305023,27.5786449 20.5966887,28.2834437 C20.7073946,28.4249827 20.8514119,28.5369203 21.015894,28.6092715 C21.5170034,28.3896246 22.0058038,28.1429031 22.4801325,27.8701987 C22.918543,27.6172185 23.3390728,27.3456954 23.7417219,27.0556291 C23.7665742,26.8705621 23.7426026,26.6822133 23.6721854,26.5092715 C23.3437231,25.6592841 22.9546429,24.8339825 22.507947,24.0397351 C23.0649332,23.5748924 23.5783218,23.0601738 24.0417219,22.5019868 C24.8334122,22.9483214 25.6560454,23.3373957 26.5033113,23.6662252 C26.6700381,23.7338549 26.8509266,23.759111 27.0298013,23.7397351 C27.3537951,23.2987301 27.6535752,22.840438 27.9278146,22.3668874 C28.1807947,21.9284768 28.4092715,21.4827815 28.613245,21.0298013 C28.5422315,20.8568115 28.4271565,20.7054331 28.2794702,20.5907285 C27.569836,20.0205627 26.8202317,19.5020145 26.0364238,19.0390728 C26.2860066,18.3590194 26.4722285,17.6573622 26.5927152,16.9430464 C27.5041555,16.9340961 28.4137777,16.8597328 29.3145695,16.7205298 C29.4926938,16.6960063 29.6619716,16.6277491 29.8072848,16.5218543 C29.8673762,15.9782169 29.8978848,15.4317161 29.8986755,14.8847682 C29.9,14.3801325 29.8754967,13.8807947 29.8251656,13.386755 L29.8251656,13.386755 Z M14.9503311,20.0821192 C12.1161228,20.0821192 9.81854305,17.7845394 9.81854305,14.9503311 C9.81854305,12.1161228 12.1161228,9.81854305 14.9503311,9.81854305 C17.7845394,9.81854305 20.0821192,12.1161228 20.0821192,14.9503311 C20.0821192,17.7845394 17.7845394,20.0821192 14.9503311,20.0821192 L14.9503311,20.0821192 Z" id="Shape" fill="#EB001B"></path>
                </g>
            </g>
        </g>
    </g>
</svg>