<?xml version="1.0" encoding="UTF-8" standalone="no"?>
<svg width="22px" height="14px" viewBox="0 0 22 14" version="1.1" xmlns="http://www.w3.org/2000/svg" xmlns:xlink="http://www.w3.org/1999/xlink">
    <!-- Generator: Sketch 40.3 (33839) - http://www.bohemiancoding.com/sketch -->
    <title>menu</title>
    <desc>Created with Sketch.</desc>
    <defs></defs>
    <g id="Page-2-Copy" stroke="none" stroke-width="1" fill="none" fill-rule="evenodd">
        <g id="ATM_RefApp_320" transform="translate(-20.000000, -25.000000)" fill="#222222">
            <g id="Header">
                <g id="menu" transform="translate(20.000000, 25.000000)">
                    <path d="M1,2 L21,2 C21.5522847,2 22,1.55228475 22,1 C22,0.44771525 21.5522847,3.38176876e-17 21,0 L1,0 C0.44771525,-3.38176876e-17 6.76353751e-17,0.44771525 0,1 C-6.76353751e-17,1.55228475 0.44771525,2 1,2 L1,2 Z" id="Shape"></path>
                    <path d="M20.988319,6.00006199 L1.00050249,6.00006199 C0.447940224,6.00006199 6.76693614e-17,6.44776336 0,7.00003099 C-6.76693614e-17,7.55229863 0.447940224,8 1.00050249,8 L21.0105524,8 C21.3679975,7.99603051 21.6961716,7.80176953 21.8714546,7.49039329 C22.0467376,7.17901706 22.0425,6.79783102 21.8603379,6.49042428 C21.6781758,6.18301754 21.3457641,5.99609249 20.988319,6.00006199 L20.988319,6.00006199 Z" id="Shape"></path>
                    <path d="M20.988319,12.000062 L1.00050249,12.000062 C0.447940224,12.000062 6.76693614e-17,12.4477634 0,13.000031 C-6.76693614e-17,13.5522986 0.447940224,14 1.00050249,14 L21.0105524,14 C21.3679975,13.9960305 21.6961716,13.8017695 21.8714546,13.4903933 C22.0467376,13.1790171 22.0425,12.797831 21.8603379,12.4904243 C21.6781758,12.1830175 21.3457641,11.9960925 20.988319,12.000062 L20.988319,12.000062 Z" id="Shape"></path>
                </g>
            </g>
        </g>
    </g>
</svg>